<svg width="533" height="532" xmlns="http://www.w3.org/2000/svg" xmlns:xlink="http://www.w3.org/1999/xlink" xml:space="preserve" overflow="hidden"><defs><clipPath id="clip0"><rect x="652" y="124" width="533" height="532"/></clipPath></defs><g clip-path="url(#clip0)" transform="translate(-652 -124)"><path d="M211.943 139.401C199.384 141.363 186.533 145.962 175.953 153.048 167.399 158.777 159.465 166.407 153.708 174.953 148.841 182.178 145.859 189.682 143.309 197.947 141.178 204.855 140.962 211.779 140.962 218.941 140.962 268.522 189.23 303.932 236.936 296.481 248.897 294.613 260.836 290.263 270.927 283.568 279.905 277.611 287.909 269.953 293.842 260.93 298.551 253.767 302.851 245.382 304.632 236.936 307.84 221.715 307.46 205.594 301.854 190.948 288.441 155.908 249.096 133.598 211.943 139.401M331.91 332.91C326.088 332.894 320.668 331.404 314.915 331 298.9 329.878 281.478 329.616 265.928 334.418 230.123 345.476 200.578 370.068 177.552 398.892 167.914 410.958 158.726 423.786 152.268 437.882 142.175 459.91 136.702 485.784 135.054 509.862 133.883 526.949 134.596 545.022 137.767 561.848 139.866 572.986 144.312 583.627 145.961 594.84 149.462 592.297 151.514 587.535 153.756 583.842 158.394 576.201 162.87 568.456 167.567 560.849 179.208 541.994 194.008 525.364 213.942 515.12 232.184 505.746 252.844 499.543 272.926 495.669 304.948 489.493 338.68 487.736 370.9 493.482 401.583 498.952 430.026 512.124 457.876 525.6 480.744 536.664 502.47 549.175 524.858 561.067 541.056 569.671 557.772 577.338 573.845 586.148 589.125 594.522 603.822 604.936 619.833 611.835 615.967 601.622 608.992 592.224 603.44 582.843 588.872 558.221 572.344 534.767 558.273 509.862 549.875 494.995 543.025 479.225 535.598 463.875 522.948 437.734 510.363 410.622 504.959 381.897 498.957 350 500.796 315.749 506.11 283.923 510.999 254.646 519.961 220.433 541.869 198.985 557.541 183.643 578.744 172.322 598.838 163.956 594.802 156.059 581.799 151.796 573.845 148.774 562.866 144.602 551.43 143.665 539.854 142.872 521.691 141.627 503.788 141.5 485.869 145.3 467.471 149.201 449.976 152.885 432.883 161.216 420.212 167.392 408.865 175.786 397.893 184.55 358.711 215.848 326.268 260.739 329.821 312.916 330.288 319.77 330.249 326.167 331.91 332.91M1044.72 142.401C1031.98 144.39 1019.55 148.797 1008.73 155.823 999.98 161.503 992.949 168.508 986.889 176.952 981.083 185.043 976.394 195.098 974.661 204.945 972.448 217.518 972.102 230.548 975.779 242.934 987.537 282.538 1029.76 305.769 1069.71 299.48 1081.31 297.655 1092.77 293.039 1102.7 286.857 1111.03 281.678 1118.16 274.824 1123.94 266.928 1129.72 259.047 1133.95 250.353 1136.53 240.935 1151.53 186.148 1099.61 133.827 1044.72 142.401M680.816 166.955C700.967 175.345 722.082 186.612 737.786 201.985 758.647 222.406 767.053 254.225 772.592 281.924 779.009 314.016 780.899 349.572 775.176 381.897 769.887 411.766 757.181 439.752 744.057 466.874 735.606 484.342 727.456 501.92 717.945 518.86 704.349 543.078 688.05 565.868 673.957 589.841 669.168 597.987 663.179 605.964 659.822 614.834 675.515 608.072 689.907 597.869 704.81 589.55 721.791 580.072 739.789 572.474 756.796 562.986 783.826 547.907 810.598 533.452 838.774 520.551 861.251 510.259 884.304 500.738 908.755 496.329 939.721 490.746 973.965 492.891 1004.73 498.442 1024.93 502.087 1045.21 508.097 1063.71 517.119 1083.78 526.9 1099.08 543.108 1110.78 561.848 1115.74 569.773 1120.34 577.91 1125.28 585.842 1127.7 589.74 1129.78 594.328 1133.69 596.839 1136.22 585.765 1140.1 575.056 1142.08 563.848 1145.15 546.361 1145.82 527.592 1144.6 509.862 1140.48 449.716 1107.06 392.101 1056.71 358.906 1045.32 351.389 1032.76 343.723 1019.72 339.427 1006.69 335.132 991.477 332.413 977.736 333.119 967.735 333.633 957.748 335.702 947.744 335.909 961.572 277.857 926.375 223.392 882.762 188.5 870.282 178.516 857.381 168.953 842.773 162.265 827.148 155.111 810.456 151.834 793.786 148.299 775.523 144.426 756.346 143.996 737.801 145.791 726.789 146.856 716.199 147.732 705.81 151.77 697.847 154.864 684.876 159.014 680.816 166.955M614.834 655.823C583.763 674.148 551.542 689.942 519.86 707.118 478.543 729.516 437.258 754.41 391.894 768.073 366.963 775.582 341.729 777.96 315.915 776.829 279.583 775.239 242.74 769.391 209.943 752.538 190.026 742.302 175.194 725.64 163.568 706.809 158.876 699.21 154.515 691.413 149.821 683.82 147.514 680.089 145.557 675.386 141.962 672.818 140.307 684.064 135.402 694.636 133.428 705.81 130.667 721.427 130.31 737.948 131.004 753.797 133.842 818.61 167.935 880.885 223.94 914.956 234.034 921.098 244.641 927.509 255.931 931.23 268.885 935.499 283.28 937.852 296.92 937.488 307.28 937.211 317.557 934.834 327.912 934.748 323.923 956.234 324.569 979.913 331.43 1000.73 342.235 1033.52 366.492 1061.03 392.894 1082.16 405.405 1092.17 418.235 1101.68 432.883 1108.39 448.787 1115.68 465.035 1118.4 481.87 1122.2 499.784 1126.25 517.627 1126.07 535.855 1124.79 547.768 1123.95 559.667 1122.93 570.846 1118.5 578.683 1115.39 591.411 1111.21 595.839 1103.7 587.854 1101.4 580.174 1096.88 572.845 1093.01 559.487 1085.94 545.2 1077.05 535.03 1065.71 516.224 1044.75 507.327 1013.97 502.784 986.734 497.199 953.263 494.904 918.352 501.175 884.761 505.614 860.981 515.545 838.629 525.549 816.78 534.311 797.646 542.911 778.139 553.275 759.795 567.717 734.232 584.491 710.082 599.441 684.815 603.384 678.152 607.423 671.607 611.147 664.821 612.763 661.876 615.126 659.215 614.834 655.823M657.823 659.822C661.551 669.672 668.232 678.785 673.617 687.814 686.313 709.099 700.283 729.548 713.008 750.797 723.984 769.126 732.77 788.584 742.058 807.782 757.712 840.138 772.164 873.575 775.621 909.755 778.14 936.121 775.555 963.808 771.042 989.733 766.227 1017.4 757.816 1048.32 738.627 1069.71 728.407 1081.11 714.173 1089.82 700.811 1097.01 693.547 1100.92 685.761 1105.41 677.817 1107.7 682.201 1114.93 694.223 1119.02 701.811 1122.1 713.467 1126.82 725.383 1127.94 737.801 1128.79 755.325 1129.99 772.44 1130.06 789.787 1126.7 807.175 1123.33 824.546 1119.82 840.773 1112.39 856.43 1105.22 870.592 1094.95 883.762 1083.96 914.053 1058.66 942.197 1023.21 947.455 982.735 949.347 968.171 948.533 953.125 945.745 938.747 956.12 938.833 966.378 941.492 976.737 941.692 989.81 941.944 1004.32 939.668 1016.73 935.543 1045.8 925.879 1072.1 905.693 1091.84 882.762 1118.79 851.446 1137.48 815.489 1141.52 773.791 1143.55 752.844 1143.91 730.608 1140.23 709.809 1138.3 698.952 1133.92 688.609 1131.69 677.817 1127.78 680.328 1125.7 684.916 1123.28 688.814 1118.55 696.403 1114.24 704.243 1109.47 711.808 1097.37 731.02 1082.24 747.262 1061.71 757.526 1045.6 765.585 1028.09 770.163 1010.73 774.536 993.685 778.829 976.226 780.063 958.741 780.828 939.643 781.665 920.634 781.306 901.757 777.28 849.37 766.107 801.027 737.464 754.796 711.67 738.452 702.55 721.324 694.958 704.81 686.186 689.008 677.792 674.288 666.917 657.823 659.822M205.944 971.177C194.773 972.935 183.628 977.416 173.953 983.188 134.868 1006.5 124.412 1062.31 153.424 1097.7 173.182 1121.81 204.498 1132.5 234.937 1127.41 246.284 1125.51 257.364 1121.02 266.928 1114.7 276.073 1108.65 283.208 1101.7 289.483 1092.71 295.403 1084.22 299.711 1073.95 301.19 1063.71 302.929 1051.67 303.372 1039.58 299.876 1027.72 288.208 988.153 245.816 964.901 205.944 971.177M1039.72 975.201C1027.66 977.331 1015.85 981.86 1005.73 988.762 997.163 994.606 989.522 1002.05 983.814 1010.73 978.704 1018.5 974.283 1027.5 972.662 1036.72 970.443 1049.33 970.214 1062.27 973.777 1074.71 985.489 1115.58 1029.04 1138.66 1069.71 1131.27 1081.29 1129.17 1093.02 1124.7 1102.7 1117.93 1111.46 1111.81 1119.61 1103.82 1125.24 1094.7 1130.47 1086.24 1134.3 1076.54 1136.07 1066.71 1145.94 1011.94 1092.7 965.839 1039.72 975.201Z" fill="currentColor" transform="matrix(-1.83944e-16 -1.00134 1 -1.83697e-16 538.605 1299.83)"/></g></svg>