<svg width="532" height="534" xmlns="http://www.w3.org/2000/svg" xmlns:xlink="http://www.w3.org/1999/xlink" xml:space="preserve" overflow="hidden"><defs><clipPath id="clip0"><rect x="653" y="123" width="532" height="534"/></clipPath></defs><g clip-path="url(#clip0)" transform="translate(-653 -123)"><path d="M212.227 139.589C199.652 141.553 186.783 146.158 176.189 153.253 167.624 158.99 159.679 166.63 153.914 175.188 149.041 182.422 146.054 189.936 143.502 198.212 141.367 205.13 141.151 212.063 141.151 219.235 141.151 268.882 189.484 304.34 237.254 296.879 249.231 295.008 261.186 290.652 271.291 283.948 280.28 277.984 288.296 270.316 294.236 261.28 298.952 254.107 303.258 245.711 305.041 237.254 308.253 222.013 307.873 205.869 302.259 191.205 288.828 156.117 249.43 133.777 212.227 139.589M332.356 333.357C326.526 333.341 321.099 331.848 315.338 331.444 299.302 330.321 281.856 330.058 266.285 334.867 230.432 345.94 200.847 370.565 177.79 399.428 168.139 411.51 158.939 424.354 152.472 438.47 142.365 460.527 136.886 486.436 135.235 510.547 134.063 527.656 134.776 545.754 137.952 562.603 140.054 573.755 144.506 584.41 146.157 595.638 149.662 593.092 151.717 588.324 153.962 584.626 158.607 576.974 163.089 569.219 167.792 561.602 179.448 542.721 194.268 526.069 214.229 515.811 232.496 506.424 253.183 500.214 273.293 496.335 305.357 490.15 339.134 488.391 371.398 494.144 402.122 499.622 430.603 512.811 458.491 526.306 481.39 537.385 503.145 549.912 525.563 561.82 541.782 570.436 558.52 578.113 574.615 586.935 589.916 595.32 604.633 605.748 620.665 612.656 616.794 602.429 609.809 593.019 604.25 583.625 589.663 558.971 573.112 535.484 559.023 510.547 550.613 495.66 543.753 479.868 536.316 464.497 523.65 438.321 511.048 411.173 505.637 382.41 499.627 350.469 501.468 316.173 506.79 284.305 511.685 254.988 520.659 220.728 542.596 199.252 558.289 183.89 579.521 172.553 599.642 164.176 595.6 156.268 582.58 152 574.615 148.974 563.622 144.796 552.17 143.858 540.579 143.064 522.391 141.817 504.464 141.69 486.521 145.495 468.098 149.401 450.58 153.09 433.464 161.432 420.776 167.617 409.413 176.022 398.427 184.798 359.193 216.137 326.706 261.089 330.264 313.336 330.731 320.199 330.692 326.605 332.356 333.357M1046.12 142.592C1033.37 144.584 1020.92 148.997 1010.08 156.032 1001.32 161.72 994.282 168.734 988.213 177.19 982.4 185.291 977.704 195.36 975.969 205.22 973.753 217.81 973.407 230.857 977.089 243.261 988.862 282.917 1031.14 306.179 1071.15 299.882 1082.76 298.054 1094.23 293.432 1104.18 287.242 1112.52 282.056 1119.66 275.193 1125.45 267.286 1131.23 259.395 1135.48 250.689 1138.06 241.258 1153.07 186.398 1101.09 134.007 1046.12 142.592M681.73 167.179C701.908 175.58 723.051 186.862 738.776 202.256 759.666 222.705 768.083 254.567 773.629 282.302 780.054 314.438 781.947 350.041 776.216 382.41 770.921 412.319 758.197 440.343 745.056 467.501 736.593 484.992 728.432 502.593 718.909 519.556 705.294 543.807 688.974 566.628 674.862 590.633 670.067 598.789 664.069 606.777 660.708 615.659 676.422 608.888 690.833 598.671 705.756 590.341 722.76 580.85 740.782 573.242 757.812 563.742 784.878 548.643 811.686 534.168 839.9 521.249 862.407 510.944 885.491 501.41 909.975 496.995 940.983 491.404 975.273 493.553 1006.08 499.111 1026.31 502.76 1046.61 508.779 1065.14 517.814 1085.23 527.607 1100.56 543.837 1112.27 562.603 1117.24 570.538 1121.84 578.686 1126.79 586.628 1129.21 590.531 1131.29 595.125 1135.22 597.64 1137.75 586.551 1141.63 575.828 1143.61 564.605 1146.69 547.094 1147.36 528.3 1146.14 510.547 1142.01 450.319 1108.55 392.628 1058.13 359.388 1046.72 351.861 1034.15 344.185 1021.09 339.883 1008.04 335.581 992.807 332.859 979.049 333.566 969.034 334.081 959.033 336.153 949.016 336.36 962.862 278.23 927.618 223.692 883.947 188.753 871.45 178.755 858.531 169.18 843.904 162.483 828.258 155.319 811.544 152.038 794.851 148.498 776.564 144.62 757.361 144.189 738.791 145.986 727.764 147.053 717.16 147.93 706.757 151.974 698.783 155.072 685.795 159.228 681.73 167.179M615.659 656.703C584.546 675.053 552.282 690.868 520.558 708.067 479.185 730.495 437.845 755.423 392.42 769.104 367.456 776.623 342.188 779.004 316.339 777.872 279.958 776.279 243.065 770.424 210.225 753.548 190.281 743.298 175.429 726.614 163.787 707.758 159.089 700.149 154.723 692.341 150.022 684.737 147.712 681.001 145.752 676.292 142.152 673.722 140.495 684.983 135.584 695.568 133.607 706.757 130.842 722.396 130.485 738.938 131.18 754.808 134.022 819.709 168.16 882.068 224.24 916.184 234.348 922.334 244.969 928.754 256.274 932.48 269.246 936.754 283.66 939.111 297.318 938.746 307.693 938.469 317.984 936.089 328.352 936.003 324.357 957.518 325.005 981.228 331.874 1002.07 342.694 1034.91 366.984 1062.46 393.421 1083.61 405.949 1093.63 418.797 1103.16 433.464 1109.88 449.389 1117.18 465.659 1119.9 482.517 1123.7 500.455 1127.76 518.322 1127.58 536.575 1126.3 548.503 1125.46 560.418 1124.43 571.612 1120 579.46 1116.89 592.205 1112.7 596.639 1105.18 588.643 1102.88 580.952 1098.36 573.614 1094.47 560.238 1087.39 545.932 1078.49 535.748 1067.14 516.917 1046.15 508.008 1015.33 503.459 988.058 497.866 954.542 495.569 919.585 501.847 885.949 506.292 862.136 516.237 839.754 526.255 817.876 535.028 798.716 543.64 779.184 554.017 760.815 568.479 735.217 585.276 711.036 600.246 685.734 604.194 679.062 608.238 672.508 611.967 665.713 613.585 662.765 615.952 660.1 615.659 656.703M658.706 660.708C662.438 670.571 669.129 679.696 674.521 688.738 687.234 710.05 701.223 730.527 713.965 751.805 724.955 770.159 733.754 789.643 743.054 808.866 758.729 841.266 773.2 874.748 776.662 910.976 779.185 937.378 776.596 965.102 772.077 991.061 767.256 1018.76 758.833 1049.72 739.618 1071.15 729.385 1082.56 715.132 1091.28 701.752 1098.49 694.478 1102.4 686.681 1106.9 678.727 1109.19 683.117 1116.43 695.154 1120.52 702.753 1123.6 714.425 1128.33 726.357 1129.45 738.791 1130.3 756.339 1131.5 773.476 1131.57 790.847 1128.21 808.259 1124.83 825.652 1121.32 841.902 1113.88 857.579 1106.71 871.761 1096.42 884.948 1085.41 915.28 1060.09 943.461 1024.59 948.727 984.054 950.621 969.47 949.806 954.404 947.014 940.007 957.403 940.093 967.675 942.756 978.047 942.956 991.139 943.208 1005.67 940.929 1018.09 936.798 1047.2 927.122 1073.54 906.908 1093.3 883.947 1120.29 852.589 1139.01 816.584 1143.05 774.83 1145.09 753.854 1145.45 731.589 1141.76 710.761 1139.83 699.891 1135.45 689.534 1133.21 678.727 1129.29 681.242 1127.21 685.836 1124.78 689.739 1120.05 697.338 1115.73 705.188 1110.96 712.763 1098.85 732.001 1083.69 748.265 1063.14 758.542 1047 766.613 1029.47 771.197 1012.08 775.576 995.019 779.874 977.536 781.11 960.028 781.876 940.905 782.714 921.869 782.355 902.967 778.324 850.51 767.136 802.102 738.454 755.81 712.625 739.443 703.493 722.293 695.891 705.756 687.107 689.933 678.702 675.193 667.812 658.706 660.708M206.221 972.481C195.035 974.241 183.875 978.728 174.187 984.507 135.049 1007.85 124.579 1063.74 153.63 1099.18 173.415 1123.31 204.772 1134.02 235.252 1128.92 246.614 1127.02 257.709 1122.52 267.286 1116.2 276.443 1110.14 283.588 1103.18 289.871 1094.17 295.8 1085.67 300.113 1075.39 301.594 1065.14 303.336 1053.08 303.779 1040.97 300.279 1029.1 288.595 989.48 246.146 966.196 206.221 972.481M1041.12 976.51C1029.04 978.643 1017.21 983.178 1007.08 990.089 998.501 995.941 990.85 1003.39 985.134 1012.08 980.018 1019.86 975.591 1028.88 973.967 1038.11 971.746 1050.74 971.517 1063.7 975.084 1076.15 986.812 1117.08 1030.42 1140.19 1071.15 1132.79 1082.74 1130.68 1094.48 1126.21 1104.18 1119.43 1112.95 1113.3 1121.11 1105.3 1126.75 1096.17 1131.98 1087.69 1135.83 1077.98 1137.6 1068.14 1147.48 1013.3 1094.16 967.136 1041.12 976.51Z" fill="currentColor" transform="matrix(-1 1.22465e-16 -1.2253e-16 -1.00053 1828.83 770.607)"/></g></svg>