<svg width="754" height="754" xmlns="http://www.w3.org/2000/svg" xmlns:xlink="http://www.w3.org/1999/xlink" xml:space="preserve" overflow="hidden"><defs><clipPath id="clip0"><rect x="542" y="13" width="754" height="754"/></clipPath><clipPath id="clip1"><path d="M542.474 389.394 918.251 13.6172 1295.24 390.606 919.463 766.383Z" fill-rule="evenodd" clip-rule="evenodd"/></clipPath><clipPath id="clip2"><path d="M542.474 389.394 918.251 13.6171 1295.24 390.606 919.463 766.383Z" fill-rule="evenodd" clip-rule="evenodd"/></clipPath><clipPath id="clip3"><path d="M7.50221 763.959 898.454-126.993 1789.41 763.96 898.455 1654.91Z" fill-rule="evenodd" clip-rule="evenodd"/></clipPath></defs><g clip-path="url(#clip0)" transform="translate(-542 -13)"><g clip-path="url(#clip1)"><g clip-path="url(#clip2)"><g clip-path="url(#clip3)"><path d="M211.999 139.439C199.437 141.401 186.582 146.001 175.999 153.089 167.443 158.82 159.508 166.451 153.749 174.999 148.881 182.226 145.898 189.732 143.348 197.999 141.216 204.909 141 211.835 141 218.999 141 268.593 189.28 304.013 236.999 296.56 248.963 294.691 260.905 290.34 270.999 283.643 279.979 277.685 287.986 270.025 293.92 260.999 298.631 253.834 302.932 245.447 304.713 236.999 307.922 221.774 307.542 205.648 301.934 190.999 288.518 155.95 249.162 133.634 211.999 139.439M331.999 332.999C326.175 332.983 320.754 331.492 314.999 331.088 298.98 329.966 281.553 329.704 265.999 334.507 230.184 345.568 200.631 370.167 177.599 398.999 167.958 411.068 158.769 423.899 152.309 437.999 142.213 460.033 136.739 485.914 135.09 509.998 133.919 527.089 134.632 545.167 137.804 561.998 139.904 573.139 144.351 583.782 146 594.998 149.502 592.455 151.555 587.692 153.797 583.998 158.437 576.354 162.914 568.607 167.611 560.998 179.255 542.138 194.059 525.504 213.999 515.257 232.246 505.88 252.911 499.676 272.999 495.802 305.029 489.624 338.77 487.867 370.999 493.613 401.69 499.085 430.141 512.26 457.999 525.74 480.873 536.807 502.604 549.321 524.998 561.216 541.2 569.823 557.92 577.492 573.998 586.304 589.282 594.68 603.983 605.097 619.998 611.998 616.131 601.782 609.154 592.382 603.601 582.998 589.029 558.37 572.496 534.909 558.422 509.998 550.021 495.128 543.169 479.353 535.74 463.999 523.087 437.851 510.499 410.732 505.093 381.999 499.09 350.093 500.929 315.833 506.245 283.999 511.135 254.714 520.099 220.491 542.013 199.038 557.689 183.692 578.898 172.367 598.998 163.999 594.96 156.101 581.954 151.837 573.998 148.814 563.016 144.641 551.577 143.704 539.998 142.911 521.83 141.665 503.922 141.538 485.999 145.339 467.596 149.241 450.096 152.926 432.999 161.259 420.324 167.436 408.974 175.832 397.999 184.599 358.807 215.905 326.355 260.808 329.909 312.999 330.376 319.855 330.337 326.254 331.999 332.999M1045 142.439C1032.26 144.429 1019.83 148.837 1009 155.865 1000.25 161.547 993.214 168.552 987.152 176.999 981.345 185.092 976.654 195.15 974.921 204.999 972.707 217.576 972.361 230.609 976.039 242.999 987.8 282.613 1030.04 305.85 1070 299.56 1081.6 297.734 1093.06 293.117 1103 286.933 1111.33 281.753 1118.46 274.897 1124.24 266.999 1130.02 259.116 1134.26 250.42 1136.84 240.999 1151.84 186.197 1099.91 133.863 1045 142.439M680.998 166.999C701.154 175.391 722.275 186.661 737.983 202.038 758.85 222.465 767.258 254.293 772.798 281.999 779.217 314.1 781.108 349.665 775.383 381.999 770.093 411.876 757.383 439.87 744.256 466.999 735.802 484.472 727.65 502.053 718.137 518.998 704.537 543.223 688.234 566.019 674.137 589.998 669.347 598.146 663.356 606.125 659.998 614.998 675.695 608.234 690.091 598.028 704.998 589.707 721.984 580.226 739.987 572.626 756.998 563.136 784.035 548.053 810.815 533.594 838.997 520.689 861.48 510.395 884.54 500.871 908.997 496.462 939.972 490.876 974.225 493.022 1005 498.574 1025.21 502.22 1045.49 508.232 1064 517.257 1084.07 527.04 1099.38 543.253 1111.08 561.998 1116.04 569.925 1120.64 578.064 1125.58 585.998 1128 589.897 1130.08 594.486 1134 596.998 1136.53 585.921 1140.41 575.209 1142.39 563.998 1145.46 546.506 1146.13 527.732 1144.91 509.998 1140.79 449.836 1107.36 392.206 1057 359.002 1045.6 351.483 1033.04 343.815 1020 339.518 1006.96 335.221 991.741 332.502 977.997 333.208 967.993 333.722 958.003 335.792 947.997 335.999 961.828 277.931 926.622 223.451 882.997 188.55 870.514 178.563 857.609 168.998 842.997 162.309 827.368 155.153 810.673 151.875 793.998 148.339 775.73 144.465 756.548 144.035 737.998 145.83 726.983 146.896 716.39 147.772 705.998 151.811 698.033 154.906 685.059 159.057 680.998 166.999M614.998 655.998C583.918 674.328 551.689 690.126 519.998 707.307 478.671 729.711 437.375 754.612 391.999 768.278 367.061 775.789 341.82 778.168 315.999 777.037 279.657 775.446 242.804 769.597 209.999 752.739 190.076 742.5 175.24 725.834 163.611 706.998 158.919 699.397 154.557 691.598 149.861 684.002 147.554 680.27 145.596 675.566 142 672.998 140.345 684.247 135.439 694.821 133.464 705.998 130.702 721.62 130.345 738.145 131.039 753.998 133.878 818.828 167.979 881.12 223.999 915.2 234.096 921.343 244.706 927.756 255.999 931.478 268.957 935.748 283.355 938.102 296.999 937.738 307.362 937.461 317.642 935.083 327.999 934.997 324.009 956.489 324.656 980.174 331.518 1001 342.326 1033.8 366.59 1061.32 392.999 1082.45 405.513 1092.46 418.347 1101.98 432.999 1108.69 448.907 1115.98 465.159 1118.7 481.999 1122.5 499.917 1126.55 517.765 1126.37 535.998 1125.09 547.914 1124.25 559.816 1123.23 570.998 1118.8 578.837 1115.69 591.569 1111.51 595.998 1104 588.011 1101.7 580.328 1097.18 572.998 1093.3 559.636 1086.23 545.345 1077.34 535.172 1066 516.361 1045.03 507.462 1014.24 502.918 986.997 497.331 953.517 495.036 918.597 501.308 884.997 505.748 861.21 515.682 838.852 525.689 816.997 534.453 797.859 543.056 778.347 553.422 759.998 567.868 734.428 584.647 710.272 599.601 684.998 603.545 678.333 607.585 671.786 611.31 664.998 612.926 662.053 615.29 659.391 614.998 655.998M657.998 659.998C661.727 669.851 668.41 678.966 673.797 687.998 686.496 709.288 700.47 729.743 713.198 750.998 724.177 769.332 732.966 788.795 742.256 807.998 757.914 840.362 772.37 873.808 775.828 909.997 778.348 936.371 775.762 964.065 771.248 989.997 766.432 1017.67 758.018 1048.6 738.824 1070 728.602 1081.4 714.364 1090.11 700.998 1097.31 693.732 1101.22 685.944 1105.71 677.998 1108 682.383 1115.23 694.408 1119.32 701.998 1122.4 713.658 1127.12 725.577 1128.24 737.998 1129.09 755.527 1130.29 772.646 1130.36 789.998 1127 807.391 1123.63 824.766 1120.12 840.997 1112.69 856.658 1105.52 870.824 1095.25 883.997 1084.25 914.297 1058.95 942.448 1023.49 947.708 982.997 949.6 968.429 948.786 953.379 945.997 938.997 956.375 939.083 966.636 941.743 976.997 941.943 990.074 942.195 1004.59 939.918 1017 935.792 1046.08 926.126 1072.39 905.934 1092.13 882.997 1119.09 851.673 1137.79 815.706 1141.83 773.998 1143.86 753.045 1144.22 730.803 1140.54 709.998 1138.61 699.139 1134.23 688.793 1132 677.998 1128.08 680.51 1126 685.099 1123.58 688.998 1118.85 696.589 1114.54 704.431 1109.77 711.998 1097.67 731.215 1082.53 747.462 1062 757.728 1045.88 765.79 1028.37 770.369 1011 774.743 993.95 779.037 976.486 780.271 958.997 781.037 939.894 781.874 920.879 781.515 901.997 777.488 849.596 766.312 801.241 737.661 754.998 711.86 738.649 702.738 721.517 695.144 704.998 686.369 689.192 677.973 674.468 667.095 657.998 659.998M205.999 971.436C194.825 973.195 183.677 977.677 173.999 983.45 134.904 1006.77 124.446 1062.6 153.465 1098 173.228 1122.11 204.552 1132.81 234.999 1127.71 246.349 1125.81 257.432 1121.32 266.999 1115 276.146 1108.95 283.283 1102 289.56 1093 295.482 1084.51 299.791 1074.24 301.27 1064 303.01 1051.95 303.453 1039.86 299.956 1028 288.285 988.417 245.881 965.158 205.999 971.436M1040 975.461C1027.94 977.592 1016.12 982.122 1006 989.026 997.429 994.871 989.786 1002.32 984.076 1011 978.965 1018.77 974.543 1027.78 972.921 1037 970.702 1049.61 970.473 1062.56 974.037 1075 985.752 1115.88 1029.32 1138.97 1070 1131.58 1081.58 1129.47 1093.31 1125 1103 1118.23 1111.76 1112.11 1119.91 1104.12 1125.54 1095 1130.77 1086.53 1134.61 1076.83 1136.38 1067 1146.25 1012.21 1092.99 966.097 1040 975.461Z" fill="currentColor" transform="matrix(0.707107 -0.707107 0.707108 0.707108 7.50221 763.959)"/></g></g></g></g></svg>