<?xml version="1.0" standalone="yes"?>
<svg xmlns="http://www.w3.org/2000/svg" width="1260" height="1260">
<path style="fill:#4cbb17; stroke:none;" d="M212 139.439C199.438 141.401 186.583 146.001 176 153.089C167.444 158.82 159.508 166.452 153.749 175C148.881 182.227 145.898 189.733 143.348 198C141.216 204.91 141 211.836 141 219C141 268.594 189.281 304.014 237 296.561C248.964 294.692 260.906 290.341 271 283.644C279.98 277.686 287.987 270.026 293.921 261C298.632 253.835 302.933 245.448 304.714 237C307.923 221.775 307.543 205.649 301.935 191C288.519 155.95 249.163 133.634 212 139.439M332 333C326.176 332.984 320.755 331.493 315 331.089C298.981 329.967 281.554 329.705 266 334.508C230.185 345.569 200.632 370.168 177.6 399C167.959 411.069 158.769 423.9 152.309 438C142.213 460.034 136.739 485.915 135.09 510C133.919 527.091 134.632 545.169 137.804 562C139.904 573.141 144.351 583.784 146 595C149.502 592.457 151.555 587.694 153.797 584C158.437 576.356 162.914 568.609 167.612 561C179.256 542.14 194.06 525.506 214 515.259C232.247 505.882 252.912 499.678 273 495.803C305.03 489.625 338.771 487.868 371 493.615C401.691 499.087 430.142 512.262 458 525.742C480.874 536.809 502.606 549.323 525 561.218C541.202 569.825 557.922 577.494 574 586.306C589.284 594.682 603.985 605.099 620 612C616.133 601.784 609.156 592.384 603.603 583C589.031 558.372 572.498 534.911 558.424 510C550.023 495.129 543.171 479.354 535.742 464C523.089 437.852 510.501 410.733 505.095 382C499.092 350.094 500.931 315.834 506.247 284C511.137 254.715 520.101 220.492 542.015 199.039C557.691 183.693 578.9 172.368 599 164C594.962 156.101 581.956 151.837 574 148.814C563.018 144.641 551.579 143.704 540 142.911C521.832 141.665 503.924 141.538 486 145.339C467.597 149.241 450.097 152.926 433 161.259C420.325 167.437 408.975 175.833 398 184.6C358.808 215.906 326.356 260.809 329.91 313C330.377 319.856 330.338 326.255 332 333M1045 142.439C1032.26 144.429 1019.83 148.837 1009 155.865C1000.25 161.547 993.217 168.553 987.155 177C981.348 185.093 976.657 195.151 974.924 205C972.71 217.577 972.364 230.61 976.042 243C987.803 282.614 1030.04 305.851 1070 299.561C1081.6 297.735 1093.06 293.118 1103 286.934C1111.33 281.754 1118.46 274.898 1124.24 267C1130.02 259.117 1134.26 250.421 1136.84 241C1151.84 186.198 1099.91 133.863 1045 142.439M681 167C701.156 175.392 722.277 186.662 737.985 202.039C758.852 222.466 767.26 254.294 772.8 282C779.219 314.101 781.11 349.666 775.385 382C770.095 411.877 757.385 439.871 744.258 467C735.804 484.473 727.652 502.055 718.139 519C704.539 543.225 688.236 566.021 674.139 590C669.349 598.148 663.358 606.127 660 615C675.697 608.236 690.093 598.03 705 589.709C721.986 580.228 739.989 572.628 757 563.138C784.037 548.055 810.817 533.596 839 520.691C861.483 510.397 884.543 500.873 909 496.463C939.975 490.878 974.228 493.024 1005 498.576C1025.21 502.222 1045.49 508.234 1064 517.259C1084.07 527.042 1099.38 543.255 1111.08 562C1116.04 569.927 1120.64 578.066 1125.58 586C1128 589.899 1130.08 594.488 1134 597C1136.53 585.923 1140.41 575.211 1142.39 564C1145.46 546.508 1146.13 527.734 1144.91 510C1140.79 449.837 1107.36 392.207 1057 359.003C1045.6 351.484 1033.04 343.816 1020 339.519C1006.96 335.222 991.744 332.503 978 333.209C967.996 333.723 958.006 335.793 948 336C961.831 277.932 926.625 223.452 883 188.551C870.517 178.564 857.612 168.999 843 162.309C827.371 155.153 810.675 151.875 794 148.339C775.732 144.465 756.55 144.035 738 145.83C726.985 146.896 716.392 147.772 706 151.811C698.035 154.906 685.061 159.057 681 167M615 656C583.92 674.33 551.691 690.128 520 707.309C478.672 729.713 437.376 754.614 392 768.28C367.062 775.791 341.821 778.17 316 777.039C279.658 775.448 242.805 769.599 210 752.741C190.077 742.502 175.241 725.836 163.612 707C158.919 699.399 154.557 691.6 149.861 684.004C147.554 680.272 145.596 675.568 142 673C140.345 684.249 135.439 694.823 133.464 706C130.702 721.622 130.345 738.147 131.039 754C133.878 818.831 167.98 881.123 224 915.203C234.097 921.346 244.707 927.759 256 931.481C268.958 935.751 283.356 938.105 297 937.741C307.363 937.464 317.643 935.086 328 935C324.01 956.492 324.657 980.177 331.519 1001C342.327 1033.8 366.591 1061.32 393 1082.45C405.514 1092.46 418.348 1101.98 433 1108.69C448.908 1115.98 465.16 1118.7 482 1122.5C499.919 1126.55 517.767 1126.37 536 1125.09C547.916 1124.25 559.818 1123.23 571 1118.8C578.839 1115.69 591.571 1111.51 596 1104C588.013 1101.7 580.33 1097.18 573 1093.3C559.638 1086.23 545.347 1077.34 535.174 1066C516.363 1045.03 507.464 1014.24 502.92 987C497.333 953.52 495.038 918.6 501.31 885C505.75 861.213 515.684 838.855 525.691 817C534.455 797.861 543.058 778.349 553.424 760C567.87 734.43 584.649 710.274 599.603 685C603.547 678.335 607.587 671.788 611.312 665C612.928 662.055 615.292 659.393 615 656M658 660C661.729 669.853 668.412 678.968 673.799 688C686.498 709.29 700.472 729.745 713.2 751C724.179 769.334 732.968 788.797 742.258 808C757.916 840.365 772.372 873.811 775.83 910C778.35 936.374 775.764 964.068 771.25 990C766.434 1017.67 758.02 1048.6 738.826 1070C728.604 1081.4 714.366 1090.11 701 1097.31C693.734 1101.22 685.946 1105.71 678 1108C682.385 1115.23 694.41 1119.32 702 1122.4C713.66 1127.12 725.579 1128.24 738 1129.09C755.529 1130.29 772.648 1130.36 790 1127C807.393 1123.63 824.768 1120.12 841 1112.69C856.661 1105.52 870.827 1095.25 884 1084.25C914.3 1058.95 942.451 1023.49 947.711 983C949.603 968.432 948.789 953.382 946 939C956.378 939.086 966.639 941.746 977 941.946C990.077 942.198 1004.59 939.921 1017 935.795C1046.08 926.129 1072.39 905.937 1092.13 883C1119.09 851.676 1137.79 815.709 1141.83 774C1143.86 753.047 1144.22 730.805 1140.54 710C1138.61 699.141 1134.23 688.795 1132 678C1128.08 680.512 1126 685.101 1123.58 689C1118.85 696.591 1114.54 704.433 1109.77 712C1097.67 731.217 1082.53 747.464 1062 757.73C1045.88 765.792 1028.37 770.371 1011 774.745C993.953 779.039 976.489 780.273 959 781.039C939.897 781.876 920.882 781.517 902 777.49C849.599 766.314 801.243 737.663 755 711.862C738.651 702.74 721.519 695.146 705 686.371C689.194 677.975 674.47 667.097 658 660M206 971.439C194.826 973.198 183.678 977.68 174 983.453C134.904 1006.77 124.446 1062.6 153.465 1098C173.229 1122.11 204.553 1132.81 235 1127.71C246.35 1125.81 257.433 1121.32 267 1115C276.147 1108.95 283.284 1102 289.561 1093C295.483 1084.51 299.792 1074.24 301.271 1064C303.011 1051.95 303.454 1039.86 299.957 1028C288.286 988.42 245.882 965.161 206 971.439M1040 975.464C1027.94 977.595 1016.12 982.125 1006 989.029C997.432 994.874 989.789 1002.32 984.079 1011C978.968 1018.77 974.546 1027.78 972.924 1037C970.705 1049.61 970.476 1062.56 974.04 1075C985.755 1115.88 1029.32 1138.97 1070 1131.58C1081.58 1129.47 1093.31 1125 1103 1118.23C1111.76 1112.11 1119.91 1104.12 1125.54 1095C1130.77 1086.53 1134.61 1076.83 1136.38 1067C1146.25 1012.21 1092.99 966.1 1040 975.464z"/>
</svg>
